<svg xmlns="http://www.w3.org/2000/svg" viewBox="0 0 400 120" width="400" height="120">
  <style>
    .aura { animation: aura 3.5s ease-in-out infinite; transform-origin: 200px 60px; }
    .edge { animation: edge 5s ease-in-out infinite; }
    @keyframes aura { 0%,100% { opacity: .35; } 50% { opacity: .9; } }
    @keyframes edge { 0%,100% { opacity: 1; } 50% { opacity: .58; } }
  </style>
  <g class="aura" fill="none" stroke="#c9a876" stroke-width="4">
    <circle cx="200" cy="60" r="48" opacity=".3" stroke="#6e0d0d" stroke-width="10"/>
    <path class="edge" d="M200 16 L218 34 L218 60 L200 78 L182 60 L182 34 Z"/>
    <path class="edge" d="M200 22 L200 98 M146 60 L254 60" stroke="#cfcfcf" stroke-width="2"/>
  </g>
  <g fill="#c9a876" stroke="#0d0d0d" stroke-width="3">
    <path d="M86 105 L106 15 L116 15 L102 105 Z"/>
    <path d="M94 52 L138 52 L138 61 L94 61 Z"/>
    <path d="M106 15 L111 4 L119 15 Z"/>
    <path d="M314 105 L294 15 L284 15 L298 105 Z"/>
    <path d="M306 52 L262 52 L262 61 L306 61 Z"/>
    <path d="M294 15 L289 4 L281 15 Z"/>
  </g>
  <path d="M200 36 L220 60 L200 84 L180 60 Z" fill="#6e0d0d" stroke="#c9a876" stroke-width="3"/>
  <circle cx="200" cy="60" r="5" fill="#f4a742"/>
</svg>