<svg xmlns="http://www.w3.org/2000/svg" width="450" height="124" viewBox="0 0 450 124">
  <title>Smart Study AI — EdTech · Adaptive Learning</title>
  <defs>
    <!-- Soft Obsidian Slate Gradient -->
    <linearGradient id="cardSlate_smartstudy" x1="0" y1="0" x2="0" y2="100%">
      <stop offset="0%" stop-color="#14110d"/>
      <stop offset="100%" stop-color="#0a0807"/>
    </linearGradient>
    <!-- Whisper-thin Top Ember Edge Glow -->
    <linearGradient id="topEmber_smartstudy" x1="0%" y1="0%" x2="100%" y2="0%">
      <stop offset="0%" stop-color="#c9a876" stop-opacity="0"/>
      <stop offset="30%" stop-color="#c9a876" stop-opacity="0.4"/>
      <stop offset="50%" stop-color="#f4a742" stop-opacity="0.75"/>
      <stop offset="70%" stop-color="#c9a876" stop-opacity="0.4"/>
      <stop offset="100%" stop-color="#c9a876" stop-opacity="0"/>
    </linearGradient>
  </defs>

  <style>
    .repo-card {
      transition: all 0.3s ease;
    }
    .title-text {
      font-family: 'Cinzel', 'Palatino Linotype', 'Book Antiqua', Georgia, -apple-system, sans-serif;
      font-size: 13.5px;
      font-weight: 700;
      letter-spacing: 0.8px;
      fill: #edd7b4;
    }
    .desc-text {
      font-family: -apple-system, BlinkMacSystemFont, 'Segoe UI', Roboto, Helvetica, Arial, sans-serif;
      font-size: 11px;
      line-height: 1.45;
      fill: #a39b8f;
    }
    .meta-text {
      font-family: ui-monospace, SFMono-Regular, Menlo, Monaco, Consolas, monospace;
      font-size: 9px;
      letter-spacing: 0.5px;
      fill: #736758;
    }
    .link-text {
      font-family: ui-monospace, SFMono-Regular, Menlo, Monaco, Consolas, monospace;
      font-size: 9.5px;
      letter-spacing: 0.5px;
      fill: #c9a876;
    }
  </style>

  <!-- Card Base Plate (No Chunky Brackets) -->
  <rect x="1" y="1" width="448" height="122" rx="4" fill="url(#cardSlate_smartstudy)"/>
  <!-- Whisper-thin Dark Bronze Outer Outline -->
  <rect x="1" y="1" width="448" height="122" rx="4" fill="none" stroke="#251d14" stroke-width="1"/>

  <!-- Top Ember Accent Edge (Subtle Dark Souls Glow) -->
  <line x1="20" y1="1.5" x2="430" y2="1.5" stroke="url(#topEmber_smartstudy)" stroke-width="1.5"/>

  <!-- Left Sigil Alcove -->
  <g transform="translate(14, 16)">
    <rect width="36" height="36" rx="3" fill="#0d0a07" stroke="#2a2015" stroke-width="1"/>
    
    <!-- Open Book Wings -->
    <path d="M18 23 C14 20, 9 20, 7 21 L7 10 C9 9, 14 9, 18 12 C22 9, 27 9, 29 10 L29 21 C27 20, 22 20, 18 23 Z" fill="#19130c" stroke="#c9a876" stroke-width="1.3"/>
    <line x1="18" y1="12" x2="18" y2="24" stroke="#f4a742" stroke-width="1.4"/>
    <!-- Celestial star above spine -->
    <polygon points="18,5 19.5,8 22.5,8 20,10 21,13 18,11 15,13 16,10 13.5,8 16.5,8" fill="#fff5cc"/>
  
  </g>

  <!-- Title & Category Header -->
  <text x="60" y="27" class="title-text">Smart Study AI</text>
  <text x="60" y="42" class="meta-text">radityabhardana/smart_study</text>

  <!-- Language Indicator (Top Right, Clean & Unboxed) -->
  <g transform="translate(436, 27)">
    <text text-anchor="end" class="meta-text" fill="#9e9383">
      <tspan fill="#3178c6" font-size="12">● </tspan>TypeScript
    </text>
  </g>

  <!-- Description Lines -->
  <text x="60" y="62" class="desc-text">Intelligent learning companion engineered with automated</text>
  <text x="60" y="78" class="desc-text">study routines and adaptive spaced-revision tools.</text>

  <!-- Fine Horizontal Inscription Divider -->
  <line x1="14" y1="92" x2="436" y2="92" stroke="#1d160e" stroke-width="1"/>

  <!-- Footer Info -->
  <!-- Left: Domain Tags -->
  <text x="16" y="108" class="meta-text">AI Tutor · Study Planner · EdTech</text>

  <!-- Right: Explore Link -->
  <text x="434" y="108" text-anchor="end" class="link-text">VIEW REPO ↗</text>
</svg>
