<svg xmlns="http://www.w3.org/2000/svg" width="890" height="124" viewBox="0 0 890 124" shape-rendering="crispEdges">
  <title>Lord Souls &amp; System Milestones — radityabhardana</title>

  <style>
    .px-title {
      font-family: 'Press Start 2P', ui-monospace, monospace;
      font-size: 11px;
      letter-spacing: 0.8px;
      fill: #f0f6fc;
    }
    .px-tag {
      font-family: ui-monospace, SFMono-Regular, Consolas, monospace;
      font-size: 10px;
      fill: #8b949e;
    }
    .px-metric {
      font-family: 'Press Start 2P', ui-monospace, monospace;
      font-size: 13.5px;
      letter-spacing: 0.5px;
      fill: #e3b341;
    }
    .px-label {
      font-family: 'Press Start 2P', ui-monospace, monospace;
      font-size: 7.5px;
      letter-spacing: 0.6px;
      fill: #c9a876;
    }
    .px-sub {
      font-family: ui-monospace, SFMono-Regular, Consolas, monospace;
      font-size: 10px;
      fill: #8b949e;
    }
  </style>

  <!-- Stepped Pixel Frame -->
  
    <rect x="0" y="0" width="890" height="124" fill="#111418"/>
    <rect x="0" y="0" width="890" height="124" fill="none" stroke="#262c35" stroke-width="2"/>
    <rect x="3" y="3" width="884" height="118" fill="none" stroke="#181c22" stroke-width="1"/>
    <!-- Antique Gold Pixel Corner Rivets -->
    <rect x="2" y="2" width="3" height="3" fill="#c9a876"/>
    <rect x="5" y="2" width="2" height="2" fill="#8a6833"/>
    <rect x="2" y="5" width="2" height="2" fill="#8a6833"/>

    <rect x="885" y="2" width="3" height="3" fill="#c9a876"/>
    <rect x="883" y="2" width="2" height="2" fill="#8a6833"/>
    <rect x="885" y="5" width="2" height="2" fill="#8a6833"/>

    <rect x="2" y="119" width="3" height="3" fill="#c9a876"/>
    <rect x="5" y="120" width="2" height="2" fill="#8a6833"/>
    <rect x="2" y="117" width="2" height="2" fill="#8a6833"/>

    <rect x="885" y="119" width="3" height="3" fill="#c9a876"/>
    <rect x="883" y="120" width="2" height="2" fill="#8a6833"/>
    <rect x="885" y="117" width="2" height="2" fill="#8a6833"/>
    <!-- Top Pixel Shimmer Line -->
    <rect x="16" y="1" width="858" height="1" fill="#4d3a1f"/>
    <rect x="385" y="1" width="120" height="1" fill="#c9a876"/>
    <rect x="425" y="1" width="40" height="1" fill="#fff5cc"/>
  

  <!-- Header Row -->
  <g transform="translate(24, 22)">
    <!-- Small Gold Pixel Diamond -->
    <rect x="0" y="0" width="3" height="3" fill="#e3b341"/>
    <rect x="3" y="-3" width="3" height="3" fill="#fff5cc"/>
    <rect x="3" y="3" width="3" height="3" fill="#8a6833"/>
    <rect x="6" y="0" width="3" height="3" fill="#e3b341"/>

    <text x="18" y="4" class="px-title">LORD SOULS HARVESTED &amp; SYSTEM MILESTONES</text>
    <text x="842" y="4" text-anchor="end" class="px-tag">PROOF OF WORK · DETERMINISTIC METRICS</text>
  </g>

  <!-- Horizontal Pixel Divider -->
  <rect x="20" y="36" width="850" height="1" fill="#1e242d"/>
  <rect x="443" y="35" width="4" height="3" fill="#c9a876"/>

  <!-- ================= 4 MILESTONE COLUMNS ================= -->

  <!-- MILESTONE 1: SOUL OF FLAME (UPTIME) -->
  <g transform="translate(24, 50)">
    <rect x="10" y="4" width="2" height="2" fill="#080b10"/><rect x="12" y="4" width="2" height="2" fill="#f7b928"/><rect x="14" y="4" width="2" height="2" fill="#f7b928"/><rect x="16" y="4" width="2" height="2" fill="#f7b928"/><rect x="18" y="4" width="2" height="2" fill="#f7b928"/><rect x="20" y="4" width="2" height="2" fill="#080b10"/><rect x="8" y="6" width="2" height="2" fill="#080b10"/><rect x="10" y="6" width="2" height="2" fill="#f7b928"/><rect x="12" y="6" width="2" height="2" fill="#f7b928"/><rect x="14" y="6" width="2" height="2" fill="#f7b928"/><rect x="16" y="6" width="2" height="2" fill="#f7b928"/><rect x="18" y="6" width="2" height="2" fill="#f7b928"/><rect x="20" y="6" width="2" height="2" fill="#f7b928"/><rect x="22" y="6" width="2" height="2" fill="#080b10"/><rect x="6" y="8" width="2" height="2" fill="#080b10"/><rect x="8" y="8" width="2" height="2" fill="#f7b928"/><rect x="10" y="8" width="2" height="2" fill="#f7b928"/><rect x="12" y="8" width="2" height="2" fill="#f97316"/><rect x="14" y="8" width="2" height="2" fill="#f97316"/><rect x="16" y="8" width="2" height="2" fill="#f97316"/><rect x="18" y="8" width="2" height="2" fill="#f97316"/><rect x="20" y="8" width="2" height="2" fill="#f7b928"/><rect x="22" y="8" width="2" height="2" fill="#f7b928"/><rect x="24" y="8" width="2" height="2" fill="#080b10"/><rect x="4" y="10" width="2" height="2" fill="#080b10"/><rect x="6" y="10" width="2" height="2" fill="#f7b928"/><rect x="8" y="10" width="2" height="2" fill="#f7b928"/><rect x="10" y="10" width="2" height="2" fill="#f97316"/><rect x="12" y="10" width="2" height="2" fill="#f97316"/><rect x="14" y="10" width="2" height="2" fill="#f97316"/><rect x="16" y="10" width="2" height="2" fill="#f97316"/><rect x="18" y="10" width="2" height="2" fill="#f97316"/><rect x="20" y="10" width="2" height="2" fill="#f97316"/><rect x="22" y="10" width="2" height="2" fill="#f97316"/><rect x="24" y="10" width="2" height="2" fill="#f97316"/><rect x="26" y="10" width="2" height="2" fill="#080b10"/><rect x="4" y="12" width="2" height="2" fill="#080b10"/><rect x="6" y="12" width="2" height="2" fill="#f7b928"/><rect x="8" y="12" width="2" height="2" fill="#f97316"/><rect x="10" y="12" width="2" height="2" fill="#f97316"/><rect x="12" y="12" width="2" height="2" fill="#ffffff"/><rect x="14" y="12" width="2" height="2" fill="#ffffff"/><rect x="16" y="12" width="2" height="2" fill="#ffffff"/><rect x="18" y="12" width="2" height="2" fill="#ffffff"/><rect x="20" y="12" width="2" height="2" fill="#f97316"/><rect x="22" y="12" width="2" height="2" fill="#f97316"/><rect x="24" y="12" width="2" height="2" fill="#f7b928"/><rect x="26" y="12" width="2" height="2" fill="#080b10"/><rect x="2" y="14" width="2" height="2" fill="#080b10"/><rect x="4" y="14" width="2" height="2" fill="#f7b928"/><rect x="6" y="14" width="2" height="2" fill="#f97316"/><rect x="8" y="14" width="2" height="2" fill="#f97316"/><rect x="10" y="14" width="2" height="2" fill="#ffffff"/><rect x="12" y="14" width="2" height="2" fill="#ffffff"/><rect x="14" y="14" width="2" height="2" fill="#ffffff"/><rect x="16" y="14" width="2" height="2" fill="#ffffff"/><rect x="18" y="14" width="2" height="2" fill="#ffffff"/><rect x="20" y="14" width="2" height="2" fill="#ffffff"/><rect x="22" y="14" width="2" height="2" fill="#f97316"/><rect x="24" y="14" width="2" height="2" fill="#f97316"/><rect x="26" y="14" width="2" height="2" fill="#f7b928"/><rect x="28" y="14" width="2" height="2" fill="#080b10"/><rect x="2" y="16" width="2" height="2" fill="#080b10"/><rect x="4" y="16" width="2" height="2" fill="#f7b928"/><rect x="6" y="16" width="2" height="2" fill="#f97316"/><rect x="8" y="16" width="2" height="2" fill="#f97316"/><rect x="10" y="16" width="2" height="2" fill="#ffffff"/><rect x="12" y="16" width="2" height="2" fill="#ffffff"/><rect x="14" y="16" width="2" height="2" fill="#ffffff"/><rect x="16" y="16" width="2" height="2" fill="#ffffff"/><rect x="18" y="16" width="2" height="2" fill="#ffffff"/><rect x="20" y="16" width="2" height="2" fill="#ffffff"/><rect x="22" y="16" width="2" height="2" fill="#f97316"/><rect x="24" y="16" width="2" height="2" fill="#f97316"/><rect x="26" y="16" width="2" height="2" fill="#f7b928"/><rect x="28" y="16" width="2" height="2" fill="#080b10"/><rect x="2" y="18" width="2" height="2" fill="#080b10"/><rect x="4" y="18" width="2" height="2" fill="#f7b928"/><rect x="6" y="18" width="2" height="2" fill="#f97316"/><rect x="8" y="18" width="2" height="2" fill="#f97316"/><rect x="10" y="18" width="2" height="2" fill="#f97316"/><rect x="12" y="18" width="2" height="2" fill="#f97316"/><rect x="14" y="18" width="2" height="2" fill="#ffffff"/><rect x="16" y="18" width="2" height="2" fill="#ffffff"/><rect x="18" y="18" width="2" height="2" fill="#f97316"/><rect x="20" y="18" width="2" height="2" fill="#f97316"/><rect x="22" y="18" width="2" height="2" fill="#f97316"/><rect x="24" y="18" width="2" height="2" fill="#f97316"/><rect x="26" y="18" width="2" height="2" fill="#f7b928"/><rect x="28" y="18" width="2" height="2" fill="#080b10"/><rect x="4" y="20" width="2" height="2" fill="#080b10"/><rect x="6" y="20" width="2" height="2" fill="#f7b928"/><rect x="8" y="20" width="2" height="2" fill="#f97316"/><rect x="10" y="20" width="2" height="2" fill="#f97316"/><rect x="12" y="20" width="2" height="2" fill="#f97316"/><rect x="14" y="20" width="2" height="2" fill="#f97316"/><rect x="16" y="20" width="2" height="2" fill="#f97316"/><rect x="18" y="20" width="2" height="2" fill="#f97316"/><rect x="20" y="20" width="2" height="2" fill="#f97316"/><rect x="22" y="20" width="2" height="2" fill="#f97316"/><rect x="24" y="20" width="2" height="2" fill="#f7b928"/><rect x="26" y="20" width="2" height="2" fill="#080b10"/><rect x="4" y="22" width="2" height="2" fill="#080b10"/><rect x="6" y="22" width="2" height="2" fill="#f7b928"/><rect x="8" y="22" width="2" height="2" fill="#f7b928"/><rect x="10" y="22" width="2" height="2" fill="#f97316"/><rect x="12" y="22" width="2" height="2" fill="#f97316"/><rect x="14" y="22" width="2" height="2" fill="#f97316"/><rect x="16" y="22" width="2" height="2" fill="#f97316"/><rect x="18" y="22" width="2" height="2" fill="#f97316"/><rect x="20" y="22" width="2" height="2" fill="#f97316"/><rect x="22" y="22" width="2" height="2" fill="#f7b928"/><rect x="24" y="22" width="2" height="2" fill="#f7b928"/><rect x="26" y="22" width="2" height="2" fill="#080b10"/><rect x="6" y="24" width="2" height="2" fill="#080b10"/><rect x="8" y="24" width="2" height="2" fill="#f7b928"/><rect x="10" y="24" width="2" height="2" fill="#f7b928"/><rect x="12" y="24" width="2" height="2" fill="#f7b928"/><rect x="14" y="24" width="2" height="2" fill="#f97316"/><rect x="16" y="24" width="2" height="2" fill="#f97316"/><rect x="18" y="24" width="2" height="2" fill="#f7b928"/><rect x="20" y="24" width="2" height="2" fill="#f7b928"/><rect x="22" y="24" width="2" height="2" fill="#f7b928"/><rect x="24" y="24" width="2" height="2" fill="#080b10"/><rect x="8" y="26" width="2" height="2" fill="#080b10"/><rect x="10" y="26" width="2" height="2" fill="#f7b928"/><rect x="12" y="26" width="2" height="2" fill="#f7b928"/><rect x="14" y="26" width="2" height="2" fill="#f7b928"/><rect x="16" y="26" width="2" height="2" fill="#f7b928"/><rect x="18" y="26" width="2" height="2" fill="#f7b928"/><rect x="20" y="26" width="2" height="2" fill="#f7b928"/><rect x="22" y="26" width="2" height="2" fill="#080b10"/><rect x="10" y="28" width="2" height="2" fill="#080b10"/><rect x="12" y="28" width="2" height="2" fill="#f7b928"/><rect x="14" y="28" width="2" height="2" fill="#f7b928"/><rect x="16" y="28" width="2" height="2" fill="#f7b928"/><rect x="18" y="28" width="2" height="2" fill="#f7b928"/><rect x="20" y="28" width="2" height="2" fill="#080b10"/><rect x="12" y="30" width="2" height="2" fill="#080b10"/><rect x="14" y="30" width="2" height="2" fill="#f7b928"/><rect x="16" y="30" width="2" height="2" fill="#f7b928"/><rect x="18" y="30" width="2" height="2" fill="#080b10"/><rect x="14" y="32" width="2" height="2" fill="#080b10"/><rect x="16" y="32" width="2" height="2" fill="#080b10"/>
    <g transform="translate(42, 0)">
      <text x="0" y="16" class="px-metric">99.9%</text>
      <text x="0" y="34" class="px-label">&gt; UPTIME CADENCE</text>
      <text x="0" y="52" class="px-sub">Unsupervised bot loops</text>
    </g>
  </g>

  <!-- Divider 1 -->
  <rect x="225" y="46" width="1" height="66" fill="#1e242d"/>

  <!-- MILESTONE 2: SOUL OF LIGHTNING (THROUGHPUT) -->
  <g transform="translate(245, 50)">
    <rect x="14" y="4" width="2" height="2" fill="#080b10"/><rect x="16" y="4" width="2" height="2" fill="#ffffff"/><rect x="18" y="4" width="2" height="2" fill="#ffffff"/><rect x="20" y="4" width="2" height="2" fill="#080b10"/><rect x="12" y="6" width="2" height="2" fill="#080b10"/><rect x="14" y="6" width="2" height="2" fill="#ffffff"/><rect x="16" y="6" width="2" height="2" fill="#ffffff"/><rect x="18" y="6" width="2" height="2" fill="#ffffff"/><rect x="20" y="6" width="2" height="2" fill="#ffffff"/><rect x="22" y="6" width="2" height="2" fill="#080b10"/><rect x="10" y="8" width="2" height="2" fill="#080b10"/><rect x="12" y="8" width="2" height="2" fill="#ffffff"/><rect x="14" y="8" width="2" height="2" fill="#ffffff"/><rect x="16" y="8" width="2" height="2" fill="#f7b928"/><rect x="18" y="8" width="2" height="2" fill="#f7b928"/><rect x="20" y="8" width="2" height="2" fill="#ffffff"/><rect x="22" y="8" width="2" height="2" fill="#080b10"/><rect x="8" y="10" width="2" height="2" fill="#080b10"/><rect x="10" y="10" width="2" height="2" fill="#ffffff"/><rect x="12" y="10" width="2" height="2" fill="#ffffff"/><rect x="14" y="10" width="2" height="2" fill="#f7b928"/><rect x="16" y="10" width="2" height="2" fill="#f7b928"/><rect x="18" y="10" width="2" height="2" fill="#f7b928"/><rect x="20" y="10" width="2" height="2" fill="#080b10"/><rect x="6" y="12" width="2" height="2" fill="#080b10"/><rect x="8" y="12" width="2" height="2" fill="#ffffff"/><rect x="10" y="12" width="2" height="2" fill="#ffffff"/><rect x="12" y="12" width="2" height="2" fill="#f7b928"/><rect x="14" y="12" width="2" height="2" fill="#f7b928"/><rect x="16" y="12" width="2" height="2" fill="#f7b928"/><rect x="18" y="12" width="2" height="2" fill="#080b10"/><rect x="4" y="14" width="2" height="2" fill="#080b10"/><rect x="6" y="14" width="2" height="2" fill="#ffffff"/><rect x="8" y="14" width="2" height="2" fill="#ffffff"/><rect x="10" y="14" width="2" height="2" fill="#f7b928"/><rect x="12" y="14" width="2" height="2" fill="#f7b928"/><rect x="14" y="14" width="2" height="2" fill="#f7b928"/><rect x="16" y="14" width="2" height="2" fill="#f7b928"/><rect x="18" y="14" width="2" height="2" fill="#080b10"/><rect x="20" y="14" width="2" height="2" fill="#080b10"/><rect x="22" y="14" width="2" height="2" fill="#080b10"/><rect x="24" y="14" width="2" height="2" fill="#080b10"/><rect x="2" y="16" width="2" height="2" fill="#080b10"/><rect x="4" y="16" width="2" height="2" fill="#ffffff"/><rect x="6" y="16" width="2" height="2" fill="#ffffff"/><rect x="8" y="16" width="2" height="2" fill="#f7b928"/><rect x="10" y="16" width="2" height="2" fill="#f7b928"/><rect x="12" y="16" width="2" height="2" fill="#f7b928"/><rect x="14" y="16" width="2" height="2" fill="#f7b928"/><rect x="16" y="16" width="2" height="2" fill="#f7b928"/><rect x="18" y="16" width="2" height="2" fill="#f7b928"/><rect x="20" y="16" width="2" height="2" fill="#f7b928"/><rect x="22" y="16" width="2" height="2" fill="#f7b928"/><rect x="24" y="16" width="2" height="2" fill="#080b10"/><rect x="4" y="18" width="2" height="2" fill="#080b10"/><rect x="6" y="18" width="2" height="2" fill="#080b10"/><rect x="8" y="18" width="2" height="2" fill="#080b10"/><rect x="10" y="18" width="2" height="2" fill="#f7b928"/><rect x="12" y="18" width="2" height="2" fill="#f7b928"/><rect x="14" y="18" width="2" height="2" fill="#f7b928"/><rect x="16" y="18" width="2" height="2" fill="#f7b928"/><rect x="18" y="18" width="2" height="2" fill="#ffffff"/><rect x="20" y="18" width="2" height="2" fill="#ffffff"/><rect x="22" y="18" width="2" height="2" fill="#080b10"/><rect x="8" y="20" width="2" height="2" fill="#080b10"/><rect x="10" y="20" width="2" height="2" fill="#f7b928"/><rect x="12" y="20" width="2" height="2" fill="#f7b928"/><rect x="14" y="20" width="2" height="2" fill="#f7b928"/><rect x="16" y="20" width="2" height="2" fill="#ffffff"/><rect x="18" y="20" width="2" height="2" fill="#ffffff"/><rect x="20" y="20" width="2" height="2" fill="#080b10"/><rect x="6" y="22" width="2" height="2" fill="#080b10"/><rect x="8" y="22" width="2" height="2" fill="#f7b928"/><rect x="10" y="22" width="2" height="2" fill="#f7b928"/><rect x="12" y="22" width="2" height="2" fill="#f7b928"/><rect x="14" y="22" width="2" height="2" fill="#ffffff"/><rect x="16" y="22" width="2" height="2" fill="#ffffff"/><rect x="18" y="22" width="2" height="2" fill="#080b10"/><rect x="4" y="24" width="2" height="2" fill="#080b10"/><rect x="6" y="24" width="2" height="2" fill="#f7b928"/><rect x="8" y="24" width="2" height="2" fill="#f7b928"/><rect x="10" y="24" width="2" height="2" fill="#f7b928"/><rect x="12" y="24" width="2" height="2" fill="#ffffff"/><rect x="14" y="24" width="2" height="2" fill="#ffffff"/><rect x="16" y="24" width="2" height="2" fill="#080b10"/><rect x="2" y="26" width="2" height="2" fill="#080b10"/><rect x="4" y="26" width="2" height="2" fill="#f7b928"/><rect x="6" y="26" width="2" height="2" fill="#f7b928"/><rect x="8" y="26" width="2" height="2" fill="#f7b928"/><rect x="10" y="26" width="2" height="2" fill="#f7b928"/><rect x="12" y="26" width="2" height="2" fill="#ffffff"/><rect x="14" y="26" width="2" height="2" fill="#080b10"/><rect x="2" y="28" width="2" height="2" fill="#080b10"/><rect x="4" y="28" width="2" height="2" fill="#f7b928"/><rect x="6" y="28" width="2" height="2" fill="#f7b928"/><rect x="8" y="28" width="2" height="2" fill="#f7b928"/><rect x="10" y="28" width="2" height="2" fill="#ffffff"/><rect x="12" y="28" width="2" height="2" fill="#080b10"/><rect x="4" y="30" width="2" height="2" fill="#080b10"/><rect x="6" y="30" width="2" height="2" fill="#f7b928"/><rect x="8" y="30" width="2" height="2" fill="#ffffff"/><rect x="10" y="30" width="2" height="2" fill="#080b10"/><rect x="6" y="32" width="2" height="2" fill="#080b10"/><rect x="8" y="32" width="2" height="2" fill="#080b10"/>
    <g transform="translate(42, 0)">
      <text x="0" y="16" class="px-metric">100K+</text>
      <text x="0" y="34" class="px-label">&gt; EVENTS PROCESSED</text>
      <text x="0" y="52" class="px-sub">High-frequency executions</text>
    </g>
  </g>

  <!-- Divider 2 -->
  <rect x="445" y="46" width="1" height="66" fill="#1e242d"/>

  <!-- MILESTONE 3: SOUL OF THE ABYSS (AUTONOMY) -->
  <g transform="translate(465, 50)">
    <rect x="10" y="4" width="2" height="2" fill="#080b10"/><rect x="12" y="4" width="2" height="2" fill="#a855f7"/><rect x="14" y="4" width="2" height="2" fill="#a855f7"/><rect x="16" y="4" width="2" height="2" fill="#a855f7"/><rect x="18" y="4" width="2" height="2" fill="#a855f7"/><rect x="20" y="4" width="2" height="2" fill="#080b10"/><rect x="8" y="6" width="2" height="2" fill="#080b10"/><rect x="10" y="6" width="2" height="2" fill="#a855f7"/><rect x="12" y="6" width="2" height="2" fill="#a855f7"/><rect x="14" y="6" width="2" height="2" fill="#6b21a8"/><rect x="16" y="6" width="2" height="2" fill="#6b21a8"/><rect x="18" y="6" width="2" height="2" fill="#a855f7"/><rect x="20" y="6" width="2" height="2" fill="#a855f7"/><rect x="22" y="6" width="2" height="2" fill="#080b10"/><rect x="6" y="8" width="2" height="2" fill="#080b10"/><rect x="8" y="8" width="2" height="2" fill="#a855f7"/><rect x="10" y="8" width="2" height="2" fill="#a855f7"/><rect x="12" y="8" width="2" height="2" fill="#6b21a8"/><rect x="14" y="8" width="2" height="2" fill="#6b21a8"/><rect x="16" y="8" width="2" height="2" fill="#6b21a8"/><rect x="18" y="8" width="2" height="2" fill="#6b21a8"/><rect x="20" y="8" width="2" height="2" fill="#a855f7"/><rect x="22" y="8" width="2" height="2" fill="#a855f7"/><rect x="24" y="8" width="2" height="2" fill="#080b10"/><rect x="4" y="10" width="2" height="2" fill="#080b10"/><rect x="6" y="10" width="2" height="2" fill="#a855f7"/><rect x="8" y="10" width="2" height="2" fill="#a855f7"/><rect x="10" y="10" width="2" height="2" fill="#6b21a8"/><rect x="12" y="10" width="2" height="2" fill="#6b21a8"/><rect x="14" y="10" width="2" height="2" fill="#ffffff"/><rect x="16" y="10" width="2" height="2" fill="#ffffff"/><rect x="18" y="10" width="2" height="2" fill="#6b21a8"/><rect x="20" y="10" width="2" height="2" fill="#6b21a8"/><rect x="22" y="10" width="2" height="2" fill="#a855f7"/><rect x="24" y="10" width="2" height="2" fill="#a855f7"/><rect x="26" y="10" width="2" height="2" fill="#080b10"/><rect x="4" y="12" width="2" height="2" fill="#080b10"/><rect x="6" y="12" width="2" height="2" fill="#a855f7"/><rect x="8" y="12" width="2" height="2" fill="#6b21a8"/><rect x="10" y="12" width="2" height="2" fill="#6b21a8"/><rect x="12" y="12" width="2" height="2" fill="#ffffff"/><rect x="14" y="12" width="2" height="2" fill="#ffffff"/><rect x="16" y="12" width="2" height="2" fill="#ffffff"/><rect x="18" y="12" width="2" height="2" fill="#ffffff"/><rect x="20" y="12" width="2" height="2" fill="#6b21a8"/><rect x="22" y="12" width="2" height="2" fill="#6b21a8"/><rect x="24" y="12" width="2" height="2" fill="#a855f7"/><rect x="26" y="12" width="2" height="2" fill="#080b10"/><rect x="2" y="14" width="2" height="2" fill="#080b10"/><rect x="4" y="14" width="2" height="2" fill="#a855f7"/><rect x="6" y="14" width="2" height="2" fill="#6b21a8"/><rect x="8" y="14" width="2" height="2" fill="#6b21a8"/><rect x="10" y="14" width="2" height="2" fill="#ffffff"/><rect x="12" y="14" width="2" height="2" fill="#ffffff"/><rect x="14" y="14" width="2" height="2" fill="#080b10"/><rect x="16" y="14" width="2" height="2" fill="#080b10"/><rect x="18" y="14" width="2" height="2" fill="#ffffff"/><rect x="20" y="14" width="2" height="2" fill="#ffffff"/><rect x="22" y="14" width="2" height="2" fill="#6b21a8"/><rect x="24" y="14" width="2" height="2" fill="#6b21a8"/><rect x="26" y="14" width="2" height="2" fill="#a855f7"/><rect x="28" y="14" width="2" height="2" fill="#080b10"/><rect x="2" y="16" width="2" height="2" fill="#080b10"/><rect x="4" y="16" width="2" height="2" fill="#a855f7"/><rect x="6" y="16" width="2" height="2" fill="#6b21a8"/><rect x="8" y="16" width="2" height="2" fill="#6b21a8"/><rect x="10" y="16" width="2" height="2" fill="#ffffff"/><rect x="12" y="16" width="2" height="2" fill="#ffffff"/><rect x="14" y="16" width="2" height="2" fill="#080b10"/><rect x="16" y="16" width="2" height="2" fill="#080b10"/><rect x="18" y="16" width="2" height="2" fill="#ffffff"/><rect x="20" y="16" width="2" height="2" fill="#ffffff"/><rect x="22" y="16" width="2" height="2" fill="#6b21a8"/><rect x="24" y="16" width="2" height="2" fill="#6b21a8"/><rect x="26" y="16" width="2" height="2" fill="#a855f7"/><rect x="28" y="16" width="2" height="2" fill="#080b10"/><rect x="2" y="18" width="2" height="2" fill="#080b10"/><rect x="4" y="18" width="2" height="2" fill="#a855f7"/><rect x="6" y="18" width="2" height="2" fill="#6b21a8"/><rect x="8" y="18" width="2" height="2" fill="#6b21a8"/><rect x="10" y="18" width="2" height="2" fill="#ffffff"/><rect x="12" y="18" width="2" height="2" fill="#ffffff"/><rect x="14" y="18" width="2" height="2" fill="#ffffff"/><rect x="16" y="18" width="2" height="2" fill="#ffffff"/><rect x="18" y="18" width="2" height="2" fill="#ffffff"/><rect x="20" y="18" width="2" height="2" fill="#ffffff"/><rect x="22" y="18" width="2" height="2" fill="#6b21a8"/><rect x="24" y="18" width="2" height="2" fill="#6b21a8"/><rect x="26" y="18" width="2" height="2" fill="#a855f7"/><rect x="28" y="18" width="2" height="2" fill="#080b10"/><rect x="4" y="20" width="2" height="2" fill="#080b10"/><rect x="6" y="20" width="2" height="2" fill="#a855f7"/><rect x="8" y="20" width="2" height="2" fill="#6b21a8"/><rect x="10" y="20" width="2" height="2" fill="#6b21a8"/><rect x="12" y="20" width="2" height="2" fill="#ffffff"/><rect x="14" y="20" width="2" height="2" fill="#ffffff"/><rect x="16" y="20" width="2" height="2" fill="#ffffff"/><rect x="18" y="20" width="2" height="2" fill="#ffffff"/><rect x="20" y="20" width="2" height="2" fill="#6b21a8"/><rect x="22" y="20" width="2" height="2" fill="#6b21a8"/><rect x="24" y="20" width="2" height="2" fill="#a855f7"/><rect x="26" y="20" width="2" height="2" fill="#080b10"/><rect x="4" y="22" width="2" height="2" fill="#080b10"/><rect x="6" y="22" width="2" height="2" fill="#a855f7"/><rect x="8" y="22" width="2" height="2" fill="#a855f7"/><rect x="10" y="22" width="2" height="2" fill="#6b21a8"/><rect x="12" y="22" width="2" height="2" fill="#6b21a8"/><rect x="14" y="22" width="2" height="2" fill="#ffffff"/><rect x="16" y="22" width="2" height="2" fill="#ffffff"/><rect x="18" y="22" width="2" height="2" fill="#6b21a8"/><rect x="20" y="22" width="2" height="2" fill="#6b21a8"/><rect x="22" y="22" width="2" height="2" fill="#a855f7"/><rect x="24" y="22" width="2" height="2" fill="#a855f7"/><rect x="26" y="22" width="2" height="2" fill="#080b10"/><rect x="6" y="24" width="2" height="2" fill="#080b10"/><rect x="8" y="24" width="2" height="2" fill="#a855f7"/><rect x="10" y="24" width="2" height="2" fill="#a855f7"/><rect x="12" y="24" width="2" height="2" fill="#6b21a8"/><rect x="14" y="24" width="2" height="2" fill="#6b21a8"/><rect x="16" y="24" width="2" height="2" fill="#6b21a8"/><rect x="18" y="24" width="2" height="2" fill="#6b21a8"/><rect x="20" y="24" width="2" height="2" fill="#a855f7"/><rect x="22" y="24" width="2" height="2" fill="#a855f7"/><rect x="24" y="24" width="2" height="2" fill="#080b10"/><rect x="8" y="26" width="2" height="2" fill="#080b10"/><rect x="10" y="26" width="2" height="2" fill="#a855f7"/><rect x="12" y="26" width="2" height="2" fill="#a855f7"/><rect x="14" y="26" width="2" height="2" fill="#6b21a8"/><rect x="16" y="26" width="2" height="2" fill="#6b21a8"/><rect x="18" y="26" width="2" height="2" fill="#a855f7"/><rect x="20" y="26" width="2" height="2" fill="#a855f7"/><rect x="22" y="26" width="2" height="2" fill="#080b10"/><rect x="10" y="28" width="2" height="2" fill="#080b10"/><rect x="12" y="28" width="2" height="2" fill="#a855f7"/><rect x="14" y="28" width="2" height="2" fill="#a855f7"/><rect x="16" y="28" width="2" height="2" fill="#a855f7"/><rect x="18" y="28" width="2" height="2" fill="#a855f7"/><rect x="20" y="28" width="2" height="2" fill="#080b10"/><rect x="12" y="30" width="2" height="2" fill="#080b10"/><rect x="14" y="30" width="2" height="2" fill="#a855f7"/><rect x="16" y="30" width="2" height="2" fill="#a855f7"/><rect x="18" y="30" width="2" height="2" fill="#080b10"/><rect x="14" y="32" width="2" height="2" fill="#080b10"/><rect x="16" y="32" width="2" height="2" fill="#080b10"/>
    <g transform="translate(42, 0)">
      <text x="0" y="16" class="px-metric">0-SEC</text>
      <text x="0" y="34" class="px-label">&gt; MANUAL REBOOTS</text>
      <text x="0" y="52" class="px-sub">Self-healing state machines</text>
    </g>
  </g>

  <!-- Divider 3 -->
  <rect x="665" y="46" width="1" height="66" fill="#1e242d"/>

  <!-- MILESTONE 4: SOUL OF SORCERY (TYPE SAFETY) -->
  <g transform="translate(685, 50)">
    <rect x="12" y="4" width="2" height="2" fill="#080b10"/><rect x="14" y="4" width="2" height="2" fill="#38bdf8"/><rect x="16" y="4" width="2" height="2" fill="#38bdf8"/><rect x="18" y="4" width="2" height="2" fill="#080b10"/><rect x="10" y="6" width="2" height="2" fill="#080b10"/><rect x="12" y="6" width="2" height="2" fill="#38bdf8"/><rect x="14" y="6" width="2" height="2" fill="#38bdf8"/><rect x="16" y="6" width="2" height="2" fill="#38bdf8"/><rect x="18" y="6" width="2" height="2" fill="#38bdf8"/><rect x="20" y="6" width="2" height="2" fill="#080b10"/><rect x="8" y="8" width="2" height="2" fill="#080b10"/><rect x="10" y="8" width="2" height="2" fill="#38bdf8"/><rect x="12" y="8" width="2" height="2" fill="#38bdf8"/><rect x="14" y="8" width="2" height="2" fill="#0284c7"/><rect x="16" y="8" width="2" height="2" fill="#0284c7"/><rect x="18" y="8" width="2" height="2" fill="#38bdf8"/><rect x="20" y="8" width="2" height="2" fill="#38bdf8"/><rect x="22" y="8" width="2" height="2" fill="#080b10"/><rect x="6" y="10" width="2" height="2" fill="#080b10"/><rect x="8" y="10" width="2" height="2" fill="#38bdf8"/><rect x="10" y="10" width="2" height="2" fill="#38bdf8"/><rect x="12" y="10" width="2" height="2" fill="#0284c7"/><rect x="14" y="10" width="2" height="2" fill="#0284c7"/><rect x="16" y="10" width="2" height="2" fill="#0284c7"/><rect x="18" y="10" width="2" height="2" fill="#0284c7"/><rect x="20" y="10" width="2" height="2" fill="#38bdf8"/><rect x="22" y="10" width="2" height="2" fill="#38bdf8"/><rect x="24" y="10" width="2" height="2" fill="#080b10"/><rect x="4" y="12" width="2" height="2" fill="#080b10"/><rect x="6" y="12" width="2" height="2" fill="#38bdf8"/><rect x="8" y="12" width="2" height="2" fill="#38bdf8"/><rect x="10" y="12" width="2" height="2" fill="#0284c7"/><rect x="12" y="12" width="2" height="2" fill="#0284c7"/><rect x="14" y="12" width="2" height="2" fill="#ffffff"/><rect x="16" y="12" width="2" height="2" fill="#ffffff"/><rect x="18" y="12" width="2" height="2" fill="#0284c7"/><rect x="20" y="12" width="2" height="2" fill="#0284c7"/><rect x="22" y="12" width="2" height="2" fill="#38bdf8"/><rect x="24" y="12" width="2" height="2" fill="#38bdf8"/><rect x="26" y="12" width="2" height="2" fill="#080b10"/><rect x="2" y="14" width="2" height="2" fill="#080b10"/><rect x="4" y="14" width="2" height="2" fill="#38bdf8"/><rect x="6" y="14" width="2" height="2" fill="#38bdf8"/><rect x="8" y="14" width="2" height="2" fill="#0284c7"/><rect x="10" y="14" width="2" height="2" fill="#0284c7"/><rect x="12" y="14" width="2" height="2" fill="#ffffff"/><rect x="14" y="14" width="2" height="2" fill="#ffffff"/><rect x="16" y="14" width="2" height="2" fill="#ffffff"/><rect x="18" y="14" width="2" height="2" fill="#ffffff"/><rect x="20" y="14" width="2" height="2" fill="#0284c7"/><rect x="22" y="14" width="2" height="2" fill="#0284c7"/><rect x="24" y="14" width="2" height="2" fill="#38bdf8"/><rect x="26" y="14" width="2" height="2" fill="#38bdf8"/><rect x="28" y="14" width="2" height="2" fill="#080b10"/><rect x="0" y="16" width="2" height="2" fill="#080b10"/><rect x="2" y="16" width="2" height="2" fill="#38bdf8"/><rect x="4" y="16" width="2" height="2" fill="#38bdf8"/><rect x="6" y="16" width="2" height="2" fill="#0284c7"/><rect x="8" y="16" width="2" height="2" fill="#0284c7"/><rect x="10" y="16" width="2" height="2" fill="#ffffff"/><rect x="12" y="16" width="2" height="2" fill="#ffffff"/><rect x="14" y="16" width="2" height="2" fill="#ffffff"/><rect x="16" y="16" width="2" height="2" fill="#ffffff"/><rect x="18" y="16" width="2" height="2" fill="#ffffff"/><rect x="20" y="16" width="2" height="2" fill="#ffffff"/><rect x="22" y="16" width="2" height="2" fill="#0284c7"/><rect x="24" y="16" width="2" height="2" fill="#0284c7"/><rect x="26" y="16" width="2" height="2" fill="#38bdf8"/><rect x="28" y="16" width="2" height="2" fill="#38bdf8"/><rect x="30" y="16" width="2" height="2" fill="#080b10"/><rect x="2" y="18" width="2" height="2" fill="#080b10"/><rect x="4" y="18" width="2" height="2" fill="#38bdf8"/><rect x="6" y="18" width="2" height="2" fill="#38bdf8"/><rect x="8" y="18" width="2" height="2" fill="#0284c7"/><rect x="10" y="18" width="2" height="2" fill="#0284c7"/><rect x="12" y="18" width="2" height="2" fill="#ffffff"/><rect x="14" y="18" width="2" height="2" fill="#ffffff"/><rect x="16" y="18" width="2" height="2" fill="#ffffff"/><rect x="18" y="18" width="2" height="2" fill="#ffffff"/><rect x="20" y="18" width="2" height="2" fill="#0284c7"/><rect x="22" y="18" width="2" height="2" fill="#0284c7"/><rect x="24" y="18" width="2" height="2" fill="#38bdf8"/><rect x="26" y="18" width="2" height="2" fill="#38bdf8"/><rect x="28" y="18" width="2" height="2" fill="#080b10"/><rect x="4" y="20" width="2" height="2" fill="#080b10"/><rect x="6" y="20" width="2" height="2" fill="#38bdf8"/><rect x="8" y="20" width="2" height="2" fill="#38bdf8"/><rect x="10" y="20" width="2" height="2" fill="#0284c7"/><rect x="12" y="20" width="2" height="2" fill="#0284c7"/><rect x="14" y="20" width="2" height="2" fill="#ffffff"/><rect x="16" y="20" width="2" height="2" fill="#ffffff"/><rect x="18" y="20" width="2" height="2" fill="#0284c7"/><rect x="20" y="20" width="2" height="2" fill="#0284c7"/><rect x="22" y="20" width="2" height="2" fill="#38bdf8"/><rect x="24" y="20" width="2" height="2" fill="#38bdf8"/><rect x="26" y="20" width="2" height="2" fill="#080b10"/><rect x="6" y="22" width="2" height="2" fill="#080b10"/><rect x="8" y="22" width="2" height="2" fill="#38bdf8"/><rect x="10" y="22" width="2" height="2" fill="#38bdf8"/><rect x="12" y="22" width="2" height="2" fill="#0284c7"/><rect x="14" y="22" width="2" height="2" fill="#0284c7"/><rect x="16" y="22" width="2" height="2" fill="#0284c7"/><rect x="18" y="22" width="2" height="2" fill="#0284c7"/><rect x="20" y="22" width="2" height="2" fill="#38bdf8"/><rect x="22" y="22" width="2" height="2" fill="#38bdf8"/><rect x="24" y="22" width="2" height="2" fill="#080b10"/><rect x="8" y="24" width="2" height="2" fill="#080b10"/><rect x="10" y="24" width="2" height="2" fill="#38bdf8"/><rect x="12" y="24" width="2" height="2" fill="#38bdf8"/><rect x="14" y="24" width="2" height="2" fill="#0284c7"/><rect x="16" y="24" width="2" height="2" fill="#0284c7"/><rect x="18" y="24" width="2" height="2" fill="#38bdf8"/><rect x="20" y="24" width="2" height="2" fill="#38bdf8"/><rect x="22" y="24" width="2" height="2" fill="#080b10"/><rect x="10" y="26" width="2" height="2" fill="#080b10"/><rect x="12" y="26" width="2" height="2" fill="#38bdf8"/><rect x="14" y="26" width="2" height="2" fill="#38bdf8"/><rect x="16" y="26" width="2" height="2" fill="#38bdf8"/><rect x="18" y="26" width="2" height="2" fill="#38bdf8"/><rect x="20" y="26" width="2" height="2" fill="#080b10"/><rect x="12" y="28" width="2" height="2" fill="#080b10"/><rect x="14" y="28" width="2" height="2" fill="#38bdf8"/><rect x="16" y="28" width="2" height="2" fill="#38bdf8"/><rect x="18" y="28" width="2" height="2" fill="#080b10"/><rect x="14" y="30" width="2" height="2" fill="#080b10"/><rect x="16" y="30" width="2" height="2" fill="#080b10"/>
    <g transform="translate(42, 0)">
      <text x="0" y="16" class="px-metric">100%</text>
      <text x="0" y="34" class="px-label">&gt; TYPE-SAFE RIGOR</text>
      <text x="0" y="52" class="px-sub">Deterministic schema types</text>
    </g>
  </g>
</svg>
