<svg xmlns="http://www.w3.org/2000/svg" width="480" height="240" viewBox="0 0 480 240" shape-rendering="crispEdges">
  <title>Dark Souls — Authentic Pixel Art Golden Summon Sign</title>
  <style><![CDATA[

  /* Breathing Holy Radiance */
  .sign-breathe { animation: sBreathe 2.6s step-end infinite; }
  @keyframes sBreathe { 0%,100% { opacity: 0.9; } 50% { opacity: 1; filter: drop-shadow(0 0 4px #f4a742); } }

  .dither-breathe { animation: dPulse 2s step-end infinite; }
  @keyframes dPulse { 0%,100% { opacity: 0.65; } 50% { opacity: 1; } }

  /* Sun Emblem Shimmer */
  .sun-glow { animation: sGlow 3.2s step-end infinite; }
  @keyframes sGlow { 0%,100% { opacity: 1; } 50% { opacity: 0.8; } }

  /* Rising Pixel Wisps */
  .w1 { animation: wRise1 3s step-end infinite; }
  .w2 { animation: wRise2 3.6s step-end infinite; }
  .w3 { animation: wRise3 2.8s step-end infinite; }
  .w4 { animation: wRise4 3.4s step-end infinite; }

  @keyframes wRise1 {
    0% { transform: translate(0, 0); opacity: 0; }
    25% { opacity: 1; }
    50% { transform: translate(-4px, -24px); opacity: 0.8; }
    75% { transform: translate(-8px, -48px); opacity: 0.5; }
    100% { transform: translate(-12px, -72px); opacity: 0; }
  }
  @keyframes wRise2 {
    0% { transform: translate(0, 0); opacity: 0; }
    25% { opacity: 1; }
    50% { transform: translate(4px, -20px); opacity: 0.8; }
    75% { transform: translate(8px, -44px); opacity: 0.5; }
    100% { transform: translate(12px, -68px); opacity: 0; }
  }
  @keyframes wRise3 {
    0% { transform: translate(0, 0); opacity: 0; }
    25% { opacity: 1; }
    50% { transform: translate(-2px, -28px); opacity: 0.9; }
    75% { transform: translate(-4px, -56px); opacity: 0.6; }
    100% { transform: translate(-6px, -84px); opacity: 0; }
  }
  @keyframes wRise4 {
    0% { transform: translate(0, 0); opacity: 0; }
    25% { opacity: 1; }
    50% { transform: translate(6px, -24px); opacity: 0.8; }
    75% { transform: translate(10px, -52px); opacity: 0.5; }
    100% { transform: translate(14px, -76px); opacity: 0; }
  }

  .caption-pulse { animation: cPulse 2.4s step-end infinite; }
  @keyframes cPulse { 0%,100% { opacity: 1; } 50% { opacity: 0.7; } }

  ]]></style>

  <!-- Dark Flagstone Floor -->
  <rect width="480" height="240" fill="#080706"/>

  <!-- Flagstone Pixel Seams -->
  <rect y="32" width="480" height="4" fill="#1f1914"/>
  <rect y="104" width="480" height="4" fill="#1f1914"/>
  <rect y="176" width="480" height="4" fill="#1f1914"/>
  <rect x="80" y="32" width="4" height="72" fill="#1f1914"/>
  <rect x="240" y="32" width="4" height="72" fill="#1f1914"/>
  <rect x="400" y="32" width="4" height="72" fill="#1f1914"/>
  <rect x="160" y="104" width="4" height="72" fill="#1f1914"/>
  <rect x="320" y="104" width="4" height="72" fill="#1f1914"/>

  <!-- Pixel Dither Ambient Golden Glow -->
  <g class="dither-breathe">
    <rect x="208" y="16" width="4" height="4" fill="#261a06"/><rect x="224" y="16" width="4" height="4" fill="#261a06"/><rect x="240" y="16" width="4" height="4" fill="#261a06"/><rect x="256" y="16" width="4" height="4" fill="#261a06"/><rect x="272" y="16" width="4" height="4" fill="#261a06"/><rect x="168" y="24" width="4" height="4" fill="#261a06"/><rect x="184" y="24" width="4" height="4" fill="#261a06"/><rect x="200" y="24" width="4" height="4" fill="#261a06"/><rect x="216" y="24" width="4" height="4" fill="#261a06"/><rect x="232" y="24" width="4" height="4" fill="#261a06"/><rect x="248" y="24" width="4" height="4" fill="#261a06"/><rect x="264" y="24" width="4" height="4" fill="#261a06"/><rect x="280" y="24" width="4" height="4" fill="#261a06"/><rect x="296" y="24" width="4" height="4" fill="#261a06"/><rect x="312" y="24" width="4" height="4" fill="#261a06"/><rect x="144" y="32" width="4" height="4" fill="#261a06"/><rect x="160" y="32" width="4" height="4" fill="#261a06"/><rect x="176" y="32" width="4" height="4" fill="#261a06"/><rect x="192" y="32" width="4" height="4" fill="#261a06"/><rect x="208" y="32" width="4" height="4" fill="#261a06"/><rect x="224" y="32" width="4" height="4" fill="#261a06"/><rect x="240" y="32" width="4" height="4" fill="#261a06"/><rect x="256" y="32" width="4" height="4" fill="#261a06"/><rect x="272" y="32" width="4" height="4" fill="#261a06"/><rect x="288" y="32" width="4" height="4" fill="#261a06"/><rect x="304" y="32" width="4" height="4" fill="#261a06"/><rect x="320" y="32" width="4" height="4" fill="#261a06"/><rect x="336" y="32" width="4" height="4" fill="#261a06"/><rect x="120" y="40" width="4" height="4" fill="#261a06"/><rect x="136" y="40" width="4" height="4" fill="#261a06"/><rect x="152" y="40" width="4" height="4" fill="#261a06"/><rect x="168" y="40" width="4" height="4" fill="#261a06"/><rect x="184" y="40" width="4" height="4" fill="#261a06"/><rect x="200" y="40" width="4" height="4" fill="#523408"/><rect x="216" y="40" width="4" height="4" fill="#523408"/><rect x="232" y="40" width="4" height="4" fill="#523408"/><rect x="248" y="40" width="4" height="4" fill="#523408"/><rect x="264" y="40" width="4" height="4" fill="#523408"/><rect x="280" y="40" width="4" height="4" fill="#523408"/><rect x="296" y="40" width="4" height="4" fill="#261a06"/><rect x="312" y="40" width="4" height="4" fill="#261a06"/><rect x="328" y="40" width="4" height="4" fill="#261a06"/><rect x="344" y="40" width="4" height="4" fill="#261a06"/><rect x="360" y="40" width="4" height="4" fill="#261a06"/><rect x="112" y="48" width="4" height="4" fill="#261a06"/><rect x="128" y="48" width="4" height="4" fill="#261a06"/><rect x="144" y="48" width="4" height="4" fill="#261a06"/><rect x="160" y="48" width="4" height="4" fill="#261a06"/><rect x="176" y="48" width="4" height="4" fill="#523408"/><rect x="192" y="48" width="4" height="4" fill="#523408"/><rect x="208" y="48" width="4" height="4" fill="#523408"/><rect x="224" y="48" width="4" height="4" fill="#523408"/><rect x="240" y="48" width="4" height="4" fill="#523408"/><rect x="256" y="48" width="4" height="4" fill="#523408"/><rect x="272" y="48" width="4" height="4" fill="#523408"/><rect x="288" y="48" width="4" height="4" fill="#523408"/><rect x="304" y="48" width="4" height="4" fill="#523408"/><rect x="320" y="48" width="4" height="4" fill="#261a06"/><rect x="336" y="48" width="4" height="4" fill="#261a06"/><rect x="352" y="48" width="4" height="4" fill="#261a06"/><rect x="368" y="48" width="4" height="4" fill="#261a06"/><rect x="88" y="56" width="4" height="4" fill="#261a06"/><rect x="104" y="56" width="4" height="4" fill="#261a06"/><rect x="120" y="56" width="4" height="4" fill="#261a06"/><rect x="136" y="56" width="4" height="4" fill="#261a06"/><rect x="152" y="56" width="4" height="4" fill="#523408"/><rect x="168" y="56" width="4" height="4" fill="#523408"/><rect x="184" y="56" width="4" height="4" fill="#523408"/><rect x="200" y="56" width="4" height="4" fill="#523408"/><rect x="216" y="56" width="4" height="4" fill="#523408"/><rect x="232" y="56" width="4" height="4" fill="#523408"/><rect x="248" y="56" width="4" height="4" fill="#523408"/><rect x="264" y="56" width="4" height="4" fill="#523408"/><rect x="280" y="56" width="4" height="4" fill="#523408"/><rect x="296" y="56" width="4" height="4" fill="#523408"/><rect x="312" y="56" width="4" height="4" fill="#523408"/><rect x="328" y="56" width="4" height="4" fill="#523408"/><rect x="344" y="56" width="4" height="4" fill="#261a06"/><rect x="360" y="56" width="4" height="4" fill="#261a06"/><rect x="376" y="56" width="4" height="4" fill="#261a06"/><rect x="392" y="56" width="4" height="4" fill="#261a06"/><rect x="80" y="64" width="4" height="4" fill="#261a06"/><rect x="96" y="64" width="4" height="4" fill="#261a06"/><rect x="112" y="64" width="4" height="4" fill="#261a06"/><rect x="128" y="64" width="4" height="4" fill="#523408"/><rect x="144" y="64" width="4" height="4" fill="#523408"/><rect x="160" y="64" width="4" height="4" fill="#523408"/><rect x="176" y="64" width="4" height="4" fill="#523408"/><rect x="192" y="64" width="4" height="4" fill="#523408"/><rect x="208" y="64" width="4" height="4" fill="#523408"/><rect x="224" y="64" width="4" height="4" fill="#8c590d"/><rect x="240" y="64" width="4" height="4" fill="#8c590d"/><rect x="256" y="64" width="4" height="4" fill="#8c590d"/><rect x="272" y="64" width="4" height="4" fill="#523408"/><rect x="288" y="64" width="4" height="4" fill="#523408"/><rect x="304" y="64" width="4" height="4" fill="#523408"/><rect x="320" y="64" width="4" height="4" fill="#523408"/><rect x="336" y="64" width="4" height="4" fill="#523408"/><rect x="352" y="64" width="4" height="4" fill="#523408"/><rect x="368" y="64" width="4" height="4" fill="#261a06"/><rect x="384" y="64" width="4" height="4" fill="#261a06"/><rect x="400" y="64" width="4" height="4" fill="#261a06"/><rect x="72" y="72" width="4" height="4" fill="#261a06"/><rect x="88" y="72" width="4" height="4" fill="#261a06"/><rect x="104" y="72" width="4" height="4" fill="#261a06"/><rect x="120" y="72" width="4" height="4" fill="#523408"/><rect x="136" y="72" width="4" height="4" fill="#523408"/><rect x="152" y="72" width="4" height="4" fill="#523408"/><rect x="168" y="72" width="4" height="4" fill="#523408"/><rect x="184" y="72" width="4" height="4" fill="#8c590d"/><rect x="200" y="72" width="4" height="4" fill="#8c590d"/><rect x="216" y="72" width="4" height="4" fill="#8c590d"/><rect x="232" y="72" width="4" height="4" fill="#8c590d"/><rect x="248" y="72" width="4" height="4" fill="#8c590d"/><rect x="264" y="72" width="4" height="4" fill="#8c590d"/><rect x="280" y="72" width="4" height="4" fill="#8c590d"/><rect x="296" y="72" width="4" height="4" fill="#8c590d"/><rect x="312" y="72" width="4" height="4" fill="#523408"/><rect x="328" y="72" width="4" height="4" fill="#523408"/><rect x="344" y="72" width="4" height="4" fill="#523408"/><rect x="360" y="72" width="4" height="4" fill="#523408"/><rect x="376" y="72" width="4" height="4" fill="#261a06"/><rect x="392" y="72" width="4" height="4" fill="#261a06"/><rect x="408" y="72" width="4" height="4" fill="#261a06"/><rect x="64" y="80" width="4" height="4" fill="#261a06"/><rect x="80" y="80" width="4" height="4" fill="#261a06"/><rect x="96" y="80" width="4" height="4" fill="#261a06"/><rect x="112" y="80" width="4" height="4" fill="#523408"/><rect x="128" y="80" width="4" height="4" fill="#523408"/><rect x="144" y="80" width="4" height="4" fill="#523408"/><rect x="160" y="80" width="4" height="4" fill="#523408"/><rect x="176" y="80" width="4" height="4" fill="#8c590d"/><rect x="192" y="80" width="4" height="4" fill="#8c590d"/><rect x="208" y="80" width="4" height="4" fill="#8c590d"/><rect x="224" y="80" width="4" height="4" fill="#8c590d"/><rect x="240" y="80" width="4" height="4" fill="#8c590d"/><rect x="256" y="80" width="4" height="4" fill="#8c590d"/><rect x="272" y="80" width="4" height="4" fill="#8c590d"/><rect x="288" y="80" width="4" height="4" fill="#8c590d"/><rect x="304" y="80" width="4" height="4" fill="#8c590d"/><rect x="320" y="80" width="4" height="4" fill="#523408"/><rect x="336" y="80" width="4" height="4" fill="#523408"/><rect x="352" y="80" width="4" height="4" fill="#523408"/><rect x="368" y="80" width="4" height="4" fill="#523408"/><rect x="384" y="80" width="4" height="4" fill="#261a06"/><rect x="400" y="80" width="4" height="4" fill="#261a06"/><rect x="416" y="80" width="4" height="4" fill="#261a06"/><rect x="72" y="88" width="4" height="4" fill="#261a06"/><rect x="88" y="88" width="4" height="4" fill="#261a06"/><rect x="104" y="88" width="4" height="4" fill="#523408"/><rect x="120" y="88" width="4" height="4" fill="#523408"/><rect x="136" y="88" width="4" height="4" fill="#523408"/><rect x="152" y="88" width="4" height="4" fill="#523408"/><rect x="168" y="88" width="4" height="4" fill="#8c590d"/><rect x="184" y="88" width="4" height="4" fill="#8c590d"/><rect x="200" y="88" width="4" height="4" fill="#8c590d"/><rect x="216" y="88" width="4" height="4" fill="#8c590d"/><rect x="232" y="88" width="4" height="4" fill="#8c590d"/><rect x="248" y="88" width="4" height="4" fill="#8c590d"/><rect x="264" y="88" width="4" height="4" fill="#8c590d"/><rect x="280" y="88" width="4" height="4" fill="#8c590d"/><rect x="296" y="88" width="4" height="4" fill="#8c590d"/><rect x="312" y="88" width="4" height="4" fill="#8c590d"/><rect x="328" y="88" width="4" height="4" fill="#523408"/><rect x="344" y="88" width="4" height="4" fill="#523408"/><rect x="360" y="88" width="4" height="4" fill="#523408"/><rect x="376" y="88" width="4" height="4" fill="#523408"/><rect x="392" y="88" width="4" height="4" fill="#261a06"/><rect x="408" y="88" width="4" height="4" fill="#261a06"/><rect x="64" y="96" width="4" height="4" fill="#261a06"/><rect x="80" y="96" width="4" height="4" fill="#261a06"/><rect x="96" y="96" width="4" height="4" fill="#523408"/><rect x="112" y="96" width="4" height="4" fill="#523408"/><rect x="128" y="96" width="4" height="4" fill="#523408"/><rect x="144" y="96" width="4" height="4" fill="#523408"/><rect x="160" y="96" width="4" height="4" fill="#8c590d"/><rect x="176" y="96" width="4" height="4" fill="#8c590d"/><rect x="192" y="96" width="4" height="4" fill="#8c590d"/><rect x="288" y="96" width="4" height="4" fill="#8c590d"/><rect x="304" y="96" width="4" height="4" fill="#8c590d"/><rect x="320" y="96" width="4" height="4" fill="#8c590d"/><rect x="336" y="96" width="4" height="4" fill="#523408"/><rect x="352" y="96" width="4" height="4" fill="#523408"/><rect x="368" y="96" width="4" height="4" fill="#523408"/><rect x="384" y="96" width="4" height="4" fill="#523408"/><rect x="400" y="96" width="4" height="4" fill="#261a06"/><rect x="416" y="96" width="4" height="4" fill="#261a06"/><rect x="56" y="104" width="4" height="4" fill="#261a06"/><rect x="72" y="104" width="4" height="4" fill="#261a06"/><rect x="88" y="104" width="4" height="4" fill="#261a06"/><rect x="104" y="104" width="4" height="4" fill="#523408"/><rect x="120" y="104" width="4" height="4" fill="#523408"/><rect x="136" y="104" width="4" height="4" fill="#523408"/><rect x="152" y="104" width="4" height="4" fill="#8c590d"/><rect x="168" y="104" width="4" height="4" fill="#8c590d"/><rect x="184" y="104" width="4" height="4" fill="#8c590d"/><rect x="296" y="104" width="4" height="4" fill="#8c590d"/><rect x="312" y="104" width="4" height="4" fill="#8c590d"/><rect x="328" y="104" width="4" height="4" fill="#8c590d"/><rect x="344" y="104" width="4" height="4" fill="#523408"/><rect x="360" y="104" width="4" height="4" fill="#523408"/><rect x="376" y="104" width="4" height="4" fill="#523408"/><rect x="392" y="104" width="4" height="4" fill="#261a06"/><rect x="408" y="104" width="4" height="4" fill="#261a06"/><rect x="424" y="104" width="4" height="4" fill="#261a06"/><rect x="64" y="112" width="4" height="4" fill="#261a06"/><rect x="80" y="112" width="4" height="4" fill="#261a06"/><rect x="96" y="112" width="4" height="4" fill="#523408"/><rect x="112" y="112" width="4" height="4" fill="#523408"/><rect x="128" y="112" width="4" height="4" fill="#523408"/><rect x="144" y="112" width="4" height="4" fill="#8c590d"/><rect x="160" y="112" width="4" height="4" fill="#8c590d"/><rect x="176" y="112" width="4" height="4" fill="#8c590d"/><rect x="304" y="112" width="4" height="4" fill="#8c590d"/><rect x="320" y="112" width="4" height="4" fill="#8c590d"/><rect x="336" y="112" width="4" height="4" fill="#8c590d"/><rect x="352" y="112" width="4" height="4" fill="#523408"/><rect x="368" y="112" width="4" height="4" fill="#523408"/><rect x="384" y="112" width="4" height="4" fill="#523408"/><rect x="400" y="112" width="4" height="4" fill="#261a06"/><rect x="416" y="112" width="4" height="4" fill="#261a06"/><rect x="56" y="120" width="4" height="4" fill="#261a06"/><rect x="72" y="120" width="4" height="4" fill="#261a06"/><rect x="88" y="120" width="4" height="4" fill="#261a06"/><rect x="104" y="120" width="4" height="4" fill="#523408"/><rect x="120" y="120" width="4" height="4" fill="#523408"/><rect x="136" y="120" width="4" height="4" fill="#523408"/><rect x="152" y="120" width="4" height="4" fill="#8c590d"/><rect x="168" y="120" width="4" height="4" fill="#8c590d"/><rect x="312" y="120" width="4" height="4" fill="#8c590d"/><rect x="328" y="120" width="4" height="4" fill="#8c590d"/><rect x="344" y="120" width="4" height="4" fill="#523408"/><rect x="360" y="120" width="4" height="4" fill="#523408"/><rect x="376" y="120" width="4" height="4" fill="#523408"/><rect x="392" y="120" width="4" height="4" fill="#261a06"/><rect x="408" y="120" width="4" height="4" fill="#261a06"/><rect x="424" y="120" width="4" height="4" fill="#261a06"/><rect x="64" y="128" width="4" height="4" fill="#261a06"/><rect x="80" y="128" width="4" height="4" fill="#261a06"/><rect x="96" y="128" width="4" height="4" fill="#523408"/><rect x="112" y="128" width="4" height="4" fill="#523408"/><rect x="128" y="128" width="4" height="4" fill="#523408"/><rect x="144" y="128" width="4" height="4" fill="#8c590d"/><rect x="160" y="128" width="4" height="4" fill="#8c590d"/><rect x="176" y="128" width="4" height="4" fill="#8c590d"/><rect x="304" y="128" width="4" height="4" fill="#8c590d"/><rect x="320" y="128" width="4" height="4" fill="#8c590d"/><rect x="336" y="128" width="4" height="4" fill="#8c590d"/><rect x="352" y="128" width="4" height="4" fill="#523408"/><rect x="368" y="128" width="4" height="4" fill="#523408"/><rect x="384" y="128" width="4" height="4" fill="#523408"/><rect x="400" y="128" width="4" height="4" fill="#261a06"/><rect x="416" y="128" width="4" height="4" fill="#261a06"/><rect x="56" y="136" width="4" height="4" fill="#261a06"/><rect x="72" y="136" width="4" height="4" fill="#261a06"/><rect x="88" y="136" width="4" height="4" fill="#261a06"/><rect x="104" y="136" width="4" height="4" fill="#523408"/><rect x="120" y="136" width="4" height="4" fill="#523408"/><rect x="136" y="136" width="4" height="4" fill="#523408"/><rect x="152" y="136" width="4" height="4" fill="#8c590d"/><rect x="168" y="136" width="4" height="4" fill="#8c590d"/><rect x="184" y="136" width="4" height="4" fill="#8c590d"/><rect x="296" y="136" width="4" height="4" fill="#8c590d"/><rect x="312" y="136" width="4" height="4" fill="#8c590d"/><rect x="328" y="136" width="4" height="4" fill="#8c590d"/><rect x="344" y="136" width="4" height="4" fill="#523408"/><rect x="360" y="136" width="4" height="4" fill="#523408"/><rect x="376" y="136" width="4" height="4" fill="#523408"/><rect x="392" y="136" width="4" height="4" fill="#261a06"/><rect x="408" y="136" width="4" height="4" fill="#261a06"/><rect x="424" y="136" width="4" height="4" fill="#261a06"/><rect x="64" y="144" width="4" height="4" fill="#261a06"/><rect x="80" y="144" width="4" height="4" fill="#261a06"/><rect x="96" y="144" width="4" height="4" fill="#523408"/><rect x="112" y="144" width="4" height="4" fill="#523408"/><rect x="128" y="144" width="4" height="4" fill="#523408"/><rect x="144" y="144" width="4" height="4" fill="#523408"/><rect x="160" y="144" width="4" height="4" fill="#8c590d"/><rect x="176" y="144" width="4" height="4" fill="#8c590d"/><rect x="192" y="144" width="4" height="4" fill="#8c590d"/><rect x="288" y="144" width="4" height="4" fill="#8c590d"/><rect x="304" y="144" width="4" height="4" fill="#8c590d"/><rect x="320" y="144" width="4" height="4" fill="#8c590d"/><rect x="336" y="144" width="4" height="4" fill="#523408"/><rect x="352" y="144" width="4" height="4" fill="#523408"/><rect x="368" y="144" width="4" height="4" fill="#523408"/><rect x="384" y="144" width="4" height="4" fill="#523408"/><rect x="400" y="144" width="4" height="4" fill="#261a06"/><rect x="416" y="144" width="4" height="4" fill="#261a06"/><rect x="72" y="152" width="4" height="4" fill="#261a06"/><rect x="88" y="152" width="4" height="4" fill="#261a06"/><rect x="104" y="152" width="4" height="4" fill="#523408"/><rect x="120" y="152" width="4" height="4" fill="#523408"/><rect x="136" y="152" width="4" height="4" fill="#523408"/><rect x="152" y="152" width="4" height="4" fill="#523408"/><rect x="168" y="152" width="4" height="4" fill="#8c590d"/><rect x="184" y="152" width="4" height="4" fill="#8c590d"/><rect x="200" y="152" width="4" height="4" fill="#8c590d"/><rect x="216" y="152" width="4" height="4" fill="#8c590d"/><rect x="232" y="152" width="4" height="4" fill="#8c590d"/><rect x="248" y="152" width="4" height="4" fill="#8c590d"/><rect x="264" y="152" width="4" height="4" fill="#8c590d"/><rect x="280" y="152" width="4" height="4" fill="#8c590d"/><rect x="296" y="152" width="4" height="4" fill="#8c590d"/><rect x="312" y="152" width="4" height="4" fill="#8c590d"/><rect x="328" y="152" width="4" height="4" fill="#523408"/><rect x="344" y="152" width="4" height="4" fill="#523408"/><rect x="360" y="152" width="4" height="4" fill="#523408"/><rect x="376" y="152" width="4" height="4" fill="#523408"/><rect x="392" y="152" width="4" height="4" fill="#261a06"/><rect x="408" y="152" width="4" height="4" fill="#261a06"/><rect x="64" y="160" width="4" height="4" fill="#261a06"/><rect x="80" y="160" width="4" height="4" fill="#261a06"/><rect x="96" y="160" width="4" height="4" fill="#261a06"/><rect x="112" y="160" width="4" height="4" fill="#523408"/><rect x="128" y="160" width="4" height="4" fill="#523408"/><rect x="144" y="160" width="4" height="4" fill="#523408"/><rect x="160" y="160" width="4" height="4" fill="#523408"/><rect x="176" y="160" width="4" height="4" fill="#8c590d"/><rect x="192" y="160" width="4" height="4" fill="#8c590d"/><rect x="208" y="160" width="4" height="4" fill="#8c590d"/><rect x="224" y="160" width="4" height="4" fill="#8c590d"/><rect x="240" y="160" width="4" height="4" fill="#8c590d"/><rect x="256" y="160" width="4" height="4" fill="#8c590d"/><rect x="272" y="160" width="4" height="4" fill="#8c590d"/><rect x="288" y="160" width="4" height="4" fill="#8c590d"/><rect x="304" y="160" width="4" height="4" fill="#8c590d"/><rect x="320" y="160" width="4" height="4" fill="#523408"/><rect x="336" y="160" width="4" height="4" fill="#523408"/><rect x="352" y="160" width="4" height="4" fill="#523408"/><rect x="368" y="160" width="4" height="4" fill="#523408"/><rect x="384" y="160" width="4" height="4" fill="#261a06"/><rect x="400" y="160" width="4" height="4" fill="#261a06"/><rect x="416" y="160" width="4" height="4" fill="#261a06"/><rect x="72" y="168" width="4" height="4" fill="#261a06"/><rect x="88" y="168" width="4" height="4" fill="#261a06"/><rect x="104" y="168" width="4" height="4" fill="#261a06"/><rect x="120" y="168" width="4" height="4" fill="#523408"/><rect x="136" y="168" width="4" height="4" fill="#523408"/><rect x="152" y="168" width="4" height="4" fill="#523408"/><rect x="168" y="168" width="4" height="4" fill="#523408"/><rect x="184" y="168" width="4" height="4" fill="#8c590d"/><rect x="200" y="168" width="4" height="4" fill="#8c590d"/><rect x="216" y="168" width="4" height="4" fill="#8c590d"/><rect x="232" y="168" width="4" height="4" fill="#8c590d"/><rect x="248" y="168" width="4" height="4" fill="#8c590d"/><rect x="264" y="168" width="4" height="4" fill="#8c590d"/><rect x="280" y="168" width="4" height="4" fill="#8c590d"/><rect x="296" y="168" width="4" height="4" fill="#8c590d"/><rect x="312" y="168" width="4" height="4" fill="#523408"/><rect x="328" y="168" width="4" height="4" fill="#523408"/><rect x="344" y="168" width="4" height="4" fill="#523408"/><rect x="360" y="168" width="4" height="4" fill="#523408"/><rect x="376" y="168" width="4" height="4" fill="#261a06"/><rect x="392" y="168" width="4" height="4" fill="#261a06"/><rect x="408" y="168" width="4" height="4" fill="#261a06"/><rect x="80" y="176" width="4" height="4" fill="#261a06"/><rect x="96" y="176" width="4" height="4" fill="#261a06"/><rect x="112" y="176" width="4" height="4" fill="#261a06"/><rect x="128" y="176" width="4" height="4" fill="#523408"/><rect x="144" y="176" width="4" height="4" fill="#523408"/><rect x="160" y="176" width="4" height="4" fill="#523408"/><rect x="176" y="176" width="4" height="4" fill="#523408"/><rect x="192" y="176" width="4" height="4" fill="#523408"/><rect x="208" y="176" width="4" height="4" fill="#523408"/><rect x="224" y="176" width="4" height="4" fill="#8c590d"/><rect x="240" y="176" width="4" height="4" fill="#8c590d"/><rect x="256" y="176" width="4" height="4" fill="#8c590d"/><rect x="272" y="176" width="4" height="4" fill="#523408"/><rect x="288" y="176" width="4" height="4" fill="#523408"/><rect x="304" y="176" width="4" height="4" fill="#523408"/><rect x="320" y="176" width="4" height="4" fill="#523408"/><rect x="336" y="176" width="4" height="4" fill="#523408"/><rect x="352" y="176" width="4" height="4" fill="#523408"/><rect x="368" y="176" width="4" height="4" fill="#261a06"/><rect x="384" y="176" width="4" height="4" fill="#261a06"/><rect x="400" y="176" width="4" height="4" fill="#261a06"/><rect x="88" y="184" width="4" height="4" fill="#261a06"/><rect x="104" y="184" width="4" height="4" fill="#261a06"/><rect x="120" y="184" width="4" height="4" fill="#261a06"/><rect x="136" y="184" width="4" height="4" fill="#261a06"/><rect x="152" y="184" width="4" height="4" fill="#523408"/><rect x="168" y="184" width="4" height="4" fill="#523408"/><rect x="184" y="184" width="4" height="4" fill="#523408"/><rect x="200" y="184" width="4" height="4" fill="#523408"/><rect x="216" y="184" width="4" height="4" fill="#523408"/><rect x="232" y="184" width="4" height="4" fill="#523408"/><rect x="248" y="184" width="4" height="4" fill="#523408"/><rect x="264" y="184" width="4" height="4" fill="#523408"/><rect x="280" y="184" width="4" height="4" fill="#523408"/><rect x="296" y="184" width="4" height="4" fill="#523408"/><rect x="312" y="184" width="4" height="4" fill="#523408"/><rect x="328" y="184" width="4" height="4" fill="#523408"/><rect x="344" y="184" width="4" height="4" fill="#261a06"/><rect x="360" y="184" width="4" height="4" fill="#261a06"/><rect x="376" y="184" width="4" height="4" fill="#261a06"/><rect x="392" y="184" width="4" height="4" fill="#261a06"/><rect x="112" y="192" width="4" height="4" fill="#261a06"/><rect x="128" y="192" width="4" height="4" fill="#261a06"/><rect x="144" y="192" width="4" height="4" fill="#261a06"/><rect x="160" y="192" width="4" height="4" fill="#261a06"/><rect x="176" y="192" width="4" height="4" fill="#523408"/><rect x="192" y="192" width="4" height="4" fill="#523408"/><rect x="208" y="192" width="4" height="4" fill="#523408"/><rect x="224" y="192" width="4" height="4" fill="#523408"/><rect x="240" y="192" width="4" height="4" fill="#523408"/><rect x="256" y="192" width="4" height="4" fill="#523408"/><rect x="272" y="192" width="4" height="4" fill="#523408"/><rect x="288" y="192" width="4" height="4" fill="#523408"/><rect x="304" y="192" width="4" height="4" fill="#523408"/><rect x="320" y="192" width="4" height="4" fill="#261a06"/><rect x="336" y="192" width="4" height="4" fill="#261a06"/><rect x="352" y="192" width="4" height="4" fill="#261a06"/><rect x="368" y="192" width="4" height="4" fill="#261a06"/><rect x="120" y="200" width="4" height="4" fill="#261a06"/><rect x="136" y="200" width="4" height="4" fill="#261a06"/><rect x="152" y="200" width="4" height="4" fill="#261a06"/><rect x="168" y="200" width="4" height="4" fill="#261a06"/><rect x="184" y="200" width="4" height="4" fill="#261a06"/><rect x="200" y="200" width="4" height="4" fill="#523408"/><rect x="216" y="200" width="4" height="4" fill="#523408"/><rect x="232" y="200" width="4" height="4" fill="#523408"/><rect x="248" y="200" width="4" height="4" fill="#523408"/><rect x="264" y="200" width="4" height="4" fill="#523408"/><rect x="280" y="200" width="4" height="4" fill="#523408"/><rect x="296" y="200" width="4" height="4" fill="#261a06"/><rect x="312" y="200" width="4" height="4" fill="#261a06"/><rect x="328" y="200" width="4" height="4" fill="#261a06"/><rect x="344" y="200" width="4" height="4" fill="#261a06"/><rect x="360" y="200" width="4" height="4" fill="#261a06"/><rect x="144" y="208" width="4" height="4" fill="#261a06"/><rect x="160" y="208" width="4" height="4" fill="#261a06"/><rect x="176" y="208" width="4" height="4" fill="#261a06"/><rect x="192" y="208" width="4" height="4" fill="#261a06"/><rect x="208" y="208" width="4" height="4" fill="#261a06"/><rect x="224" y="208" width="4" height="4" fill="#261a06"/><rect x="240" y="208" width="4" height="4" fill="#261a06"/><rect x="256" y="208" width="4" height="4" fill="#261a06"/><rect x="272" y="208" width="4" height="4" fill="#261a06"/><rect x="288" y="208" width="4" height="4" fill="#261a06"/><rect x="304" y="208" width="4" height="4" fill="#261a06"/><rect x="320" y="208" width="4" height="4" fill="#261a06"/><rect x="336" y="208" width="4" height="4" fill="#261a06"/><rect x="168" y="216" width="4" height="4" fill="#261a06"/><rect x="184" y="216" width="4" height="4" fill="#261a06"/><rect x="200" y="216" width="4" height="4" fill="#261a06"/><rect x="216" y="216" width="4" height="4" fill="#261a06"/><rect x="232" y="216" width="4" height="4" fill="#261a06"/><rect x="248" y="216" width="4" height="4" fill="#261a06"/><rect x="264" y="216" width="4" height="4" fill="#261a06"/><rect x="280" y="216" width="4" height="4" fill="#261a06"/><rect x="296" y="216" width="4" height="4" fill="#261a06"/><rect x="312" y="216" width="4" height="4" fill="#261a06"/>
  </g>

  <!-- ============================================================== -->
  <!-- GOLDEN SOAPSTONE SUMMON SIGN (100% PURE PIXEL ART)             -->
  <!-- ============================================================== -->
  <g class="sign-breathe">
    <!-- Soapstone Tablet Floor Inscription Base -->
    <rect x="72" y="48" width="336" height="144" fill="#120f0c"/>

    <!-- Soapstone Pixel Frame & Cardinal Terminals -->
    <rect x="72" y="48" width="336" height="4" fill="#c9a876"/><rect x="72" y="188" width="336" height="4" fill="#c9a876"/><rect x="72" y="48" width="4" height="144" fill="#c9a876"/><rect x="404" y="48" width="4" height="144" fill="#c9a876"/><rect x="80" y="56" width="320" height="4" fill="#f4a742"/><rect x="80" y="180" width="320" height="4" fill="#f4a742"/><rect x="80" y="56" width="4" height="128" fill="#f4a742"/><rect x="396" y="56" width="4" height="128" fill="#f4a742"/><rect x="68" y="44" width="12" height="12" fill="#f5d698"/><rect x="400" y="44" width="12" height="12" fill="#f5d698"/><rect x="68" y="184" width="12" height="12" fill="#f5d698"/><rect x="400" y="184" width="12" height="12" fill="#f5d698"/><rect x="236" y="36" width="8" height="8" fill="#f5d698"/><rect x="232" y="40" width="16" height="4" fill="#f4a742"/><rect x="236" y="196" width="8" height="8" fill="#f5d698"/><rect x="232" y="192" width="16" height="4" fill="#f4a742"/><rect x="60" y="116" width="8" height="8" fill="#f5d698"/><rect x="412" y="116" width="8" height="8" fill="#f5d698"/>

    <!-- Ancient Soapstone Runes on Left & Right Flanks -->
    <rect x="96" y="72" width="20" height="4" fill="#f4a742"/><rect x="124" y="72" width="12" height="4" fill="#f4a742"/><rect x="144" y="72" width="24" height="4" fill="#f4a742"/><rect x="104" y="84" width="16" height="4" fill="#f4a742"/><rect x="128" y="84" width="32" height="4" fill="#f4a742"/><rect x="96" y="96" width="8" height="4" fill="#f4a742"/><rect x="112" y="96" width="16" height="4" fill="#f4a742"/><rect x="136" y="96" width="12" height="4" fill="#f4a742"/><rect x="156" y="96" width="16" height="4" fill="#f4a742"/><rect x="100" y="108" width="24" height="4" fill="#f4a742"/><rect x="132" y="108" width="8" height="4" fill="#f4a742"/><rect x="148" y="108" width="20" height="4" fill="#f4a742"/><rect x="96" y="120" width="16" height="4" fill="#f4a742"/><rect x="120" y="120" width="24" height="4" fill="#f4a742"/><rect x="152" y="120" width="16" height="4" fill="#f4a742"/><rect x="104" y="132" width="12" height="4" fill="#f4a742"/><rect x="124" y="132" width="20" height="4" fill="#f4a742"/><rect x="152" y="132" width="12" height="4" fill="#f4a742"/><rect x="96" y="144" width="24" height="4" fill="#f4a742"/><rect x="128" y="144" width="16" height="4" fill="#f4a742"/><rect x="152" y="144" width="16" height="4" fill="#f4a742"/><rect x="104" y="156" width="16" height="4" fill="#f4a742"/><rect x="128" y="156" width="32" height="4" fill="#f4a742"/><rect x="96" y="168" width="20" height="4" fill="#f4a742"/><rect x="124" y="168" width="16" height="4" fill="#f4a742"/><rect x="148" y="168" width="20" height="4" fill="#f4a742"/><rect x="312" y="72" width="24" height="4" fill="#f4a742"/><rect x="344" y="72" width="12" height="4" fill="#f4a742"/><rect x="364" y="72" width="20" height="4" fill="#f4a742"/><rect x="320" y="84" width="32" height="4" fill="#f4a742"/><rect x="360" y="84" width="16" height="4" fill="#f4a742"/><rect x="312" y="96" width="16" height="4" fill="#f4a742"/><rect x="336" y="96" width="12" height="4" fill="#f4a742"/><rect x="356" y="96" width="16" height="4" fill="#f4a742"/><rect x="380" y="96" width="8" height="4" fill="#f4a742"/><rect x="316" y="108" width="20" height="4" fill="#f4a742"/><rect x="344" y="108" width="8" height="4" fill="#f4a742"/><rect x="360" y="108" width="24" height="4" fill="#f4a742"/><rect x="312" y="120" width="16" height="4" fill="#f4a742"/><rect x="336" y="120" width="24" height="4" fill="#f4a742"/><rect x="368" y="120" width="16" height="4" fill="#f4a742"/><rect x="320" y="132" width="12" height="4" fill="#f4a742"/><rect x="340" y="132" width="20" height="4" fill="#f4a742"/><rect x="368" y="132" width="12" height="4" fill="#f4a742"/><rect x="312" y="144" width="16" height="4" fill="#f4a742"/><rect x="336" y="144" width="16" height="4" fill="#f4a742"/><rect x="360" y="144" width="24" height="4" fill="#f4a742"/><rect x="320" y="156" width="32" height="4" fill="#f4a742"/><rect x="360" y="156" width="16" height="4" fill="#f4a742"/><rect x="312" y="168" width="20" height="4" fill="#f4a742"/><rect x="340" y="168" width="16" height="4" fill="#f4a742"/><rect x="364" y="168" width="20" height="4" fill="#f4a742"/><rect x="176" y="64" width="4" height="4" fill="#664a1f"/><rect x="300" y="64" width="4" height="4" fill="#664a1f"/><rect x="176" y="72" width="4" height="4" fill="#664a1f"/><rect x="300" y="72" width="4" height="4" fill="#664a1f"/><rect x="176" y="80" width="4" height="4" fill="#664a1f"/><rect x="300" y="80" width="4" height="4" fill="#664a1f"/><rect x="176" y="88" width="4" height="4" fill="#664a1f"/><rect x="300" y="88" width="4" height="4" fill="#664a1f"/><rect x="176" y="96" width="4" height="4" fill="#664a1f"/><rect x="300" y="96" width="4" height="4" fill="#664a1f"/><rect x="176" y="104" width="4" height="4" fill="#664a1f"/><rect x="300" y="104" width="4" height="4" fill="#664a1f"/><rect x="176" y="112" width="4" height="4" fill="#664a1f"/><rect x="300" y="112" width="4" height="4" fill="#664a1f"/><rect x="176" y="120" width="4" height="4" fill="#664a1f"/><rect x="300" y="120" width="4" height="4" fill="#664a1f"/><rect x="176" y="128" width="4" height="4" fill="#664a1f"/><rect x="300" y="128" width="4" height="4" fill="#664a1f"/><rect x="176" y="136" width="4" height="4" fill="#664a1f"/><rect x="300" y="136" width="4" height="4" fill="#664a1f"/><rect x="176" y="144" width="4" height="4" fill="#664a1f"/><rect x="300" y="144" width="4" height="4" fill="#664a1f"/><rect x="176" y="152" width="4" height="4" fill="#664a1f"/><rect x="300" y="152" width="4" height="4" fill="#664a1f"/><rect x="176" y="160" width="4" height="4" fill="#664a1f"/><rect x="300" y="160" width="4" height="4" fill="#664a1f"/><rect x="176" y="168" width="4" height="4" fill="#664a1f"/><rect x="300" y="168" width="4" height="4" fill="#664a1f"/>

    <!-- Central Radiant Sun Sigil (Warrior of Sunlight Emblem) -->
    <g class="sun-glow">
      <rect x="236" y="68" width="8" height="4" fill="#ffc043"/><rect x="232" y="72" width="16" height="4" fill="#ffc043"/><rect x="228" y="76" width="8" height="4" fill="#ffc043"/><rect x="244" y="76" width="8" height="4" fill="#ffc043"/><rect x="208" y="80" width="4" height="4" fill="#ffc043"/><rect x="232" y="80" width="16" height="4" fill="#ffc043"/><rect x="268" y="80" width="4" height="4" fill="#ffc043"/><rect x="204" y="84" width="12" height="4" fill="#ffc043"/><rect x="228" y="84" width="8" height="4" fill="#ffc043"/><rect x="244" y="84" width="8" height="4" fill="#ffc043"/><rect x="264" y="84" width="12" height="4" fill="#ffc043"/><rect x="200" y="88" width="20" height="4" fill="#ffc043"/><rect x="224" y="88" width="32" height="4" fill="#ffc043"/><rect x="260" y="88" width="20" height="4" fill="#ffc043"/><rect x="204" y="92" width="8" height="4" fill="#ffc043"/><rect x="220" y="92" width="8" height="4" fill="#ffc043"/><rect x="228" y="92" width="24" height="4" fill="#c9a876"/><rect x="252" y="92" width="8" height="4" fill="#ffc043"/><rect x="268" y="92" width="8" height="4" fill="#ffc043"/><rect x="208" y="96" width="4" height="4" fill="#ffc043"/><rect x="216" y="96" width="8" height="4" fill="#ffc043"/><rect x="224" y="96" width="32" height="4" fill="#c9a876"/><rect x="256" y="96" width="8" height="4" fill="#ffc043"/><rect x="268" y="96" width="4" height="4" fill="#ffc043"/><rect x="212" y="100" width="8" height="4" fill="#ffc043"/><rect x="220" y="100" width="8" height="4" fill="#c9a876"/><rect x="228" y="100" width="24" height="4" fill="#fff7e0"/><rect x="252" y="100" width="8" height="4" fill="#c9a876"/><rect x="260" y="100" width="8" height="4" fill="#ffc043"/><rect x="208" y="104" width="8" height="4" fill="#ffc043"/><rect x="216" y="104" width="8" height="4" fill="#c9a876"/><rect x="224" y="104" width="32" height="4" fill="#fff7e0"/><rect x="256" y="104" width="8" height="4" fill="#c9a876"/><rect x="264" y="104" width="8" height="4" fill="#ffc043"/><rect x="204" y="108" width="8" height="4" fill="#ffc043"/><rect x="212" y="108" width="8" height="4" fill="#c9a876"/><rect x="220" y="108" width="8" height="4" fill="#fff7e0"/><rect x="228" y="108" width="8" height="4" fill="#ffffff"/><rect x="236" y="108" width="8" height="4" fill="#fff7e0"/><rect x="244" y="108" width="8" height="4" fill="#ffffff"/><rect x="252" y="108" width="8" height="4" fill="#fff7e0"/><rect x="260" y="108" width="8" height="4" fill="#c9a876"/><rect x="268" y="108" width="8" height="4" fill="#ffc043"/><rect x="200" y="112" width="12" height="4" fill="#ffc043"/><rect x="212" y="112" width="8" height="4" fill="#c9a876"/><rect x="220" y="112" width="8" height="4" fill="#fff7e0"/><rect x="228" y="112" width="4" height="4" fill="#ffffff"/><rect x="232" y="112" width="4" height="4" fill="#120f0c"/><rect x="236" y="112" width="8" height="4" fill="#fff7e0"/><rect x="244" y="112" width="4" height="4" fill="#ffffff"/><rect x="248" y="112" width="4" height="4" fill="#120f0c"/><rect x="252" y="112" width="8" height="4" fill="#fff7e0"/><rect x="260" y="112" width="8" height="4" fill="#c9a876"/><rect x="268" y="112" width="12" height="4" fill="#ffc043"/><rect x="196" y="116" width="16" height="4" fill="#ffc043"/><rect x="212" y="116" width="8" height="4" fill="#c9a876"/><rect x="220" y="116" width="40" height="4" fill="#fff7e0"/><rect x="260" y="116" width="8" height="4" fill="#c9a876"/><rect x="268" y="116" width="16" height="4" fill="#ffc043"/><rect x="196" y="120" width="16" height="4" fill="#ffc043"/><rect x="212" y="120" width="8" height="4" fill="#c9a876"/><rect x="220" y="120" width="40" height="4" fill="#fff7e0"/><rect x="260" y="120" width="8" height="4" fill="#c9a876"/><rect x="268" y="120" width="16" height="4" fill="#ffc043"/><rect x="200" y="124" width="12" height="4" fill="#ffc043"/><rect x="212" y="124" width="8" height="4" fill="#c9a876"/><rect x="220" y="124" width="8" height="4" fill="#fff7e0"/><rect x="228" y="124" width="4" height="4" fill="#120f0c"/><rect x="232" y="124" width="4" height="4" fill="#ffffff"/><rect x="236" y="124" width="8" height="4" fill="#fff7e0"/><rect x="244" y="124" width="4" height="4" fill="#120f0c"/><rect x="248" y="124" width="4" height="4" fill="#ffffff"/><rect x="252" y="124" width="8" height="4" fill="#fff7e0"/><rect x="260" y="124" width="8" height="4" fill="#c9a876"/><rect x="268" y="124" width="12" height="4" fill="#ffc043"/><rect x="204" y="128" width="8" height="4" fill="#ffc043"/><rect x="212" y="128" width="8" height="4" fill="#c9a876"/><rect x="220" y="128" width="16" height="4" fill="#fff7e0"/><rect x="236" y="128" width="8" height="4" fill="#120f0c"/><rect x="244" y="128" width="16" height="4" fill="#fff7e0"/><rect x="260" y="128" width="8" height="4" fill="#c9a876"/><rect x="268" y="128" width="8" height="4" fill="#ffc043"/><rect x="208" y="132" width="8" height="4" fill="#ffc043"/><rect x="216" y="132" width="8" height="4" fill="#c9a876"/><rect x="224" y="132" width="32" height="4" fill="#fff7e0"/><rect x="256" y="132" width="8" height="4" fill="#c9a876"/><rect x="264" y="132" width="8" height="4" fill="#ffc043"/><rect x="212" y="136" width="8" height="4" fill="#ffc043"/><rect x="220" y="136" width="8" height="4" fill="#c9a876"/><rect x="228" y="136" width="24" height="4" fill="#fff7e0"/><rect x="252" y="136" width="8" height="4" fill="#c9a876"/><rect x="260" y="136" width="8" height="4" fill="#ffc043"/><rect x="208" y="140" width="4" height="4" fill="#ffc043"/><rect x="216" y="140" width="8" height="4" fill="#ffc043"/><rect x="224" y="140" width="32" height="4" fill="#c9a876"/><rect x="256" y="140" width="8" height="4" fill="#ffc043"/><rect x="268" y="140" width="4" height="4" fill="#ffc043"/><rect x="204" y="144" width="8" height="4" fill="#ffc043"/><rect x="220" y="144" width="8" height="4" fill="#ffc043"/><rect x="228" y="144" width="24" height="4" fill="#c9a876"/><rect x="252" y="144" width="8" height="4" fill="#ffc043"/><rect x="268" y="144" width="8" height="4" fill="#ffc043"/><rect x="200" y="148" width="20" height="4" fill="#ffc043"/><rect x="224" y="148" width="32" height="4" fill="#ffc043"/><rect x="260" y="148" width="20" height="4" fill="#ffc043"/><rect x="204" y="152" width="12" height="4" fill="#ffc043"/><rect x="228" y="152" width="8" height="4" fill="#ffc043"/><rect x="244" y="152" width="8" height="4" fill="#ffc043"/><rect x="264" y="152" width="12" height="4" fill="#ffc043"/><rect x="208" y="156" width="4" height="4" fill="#ffc043"/><rect x="232" y="156" width="16" height="4" fill="#ffc043"/><rect x="268" y="156" width="4" height="4" fill="#ffc043"/><rect x="228" y="160" width="8" height="4" fill="#ffc043"/><rect x="244" y="160" width="8" height="4" fill="#ffc043"/><rect x="232" y="164" width="16" height="4" fill="#ffc043"/><rect x="236" y="168" width="8" height="4" fill="#ffc043"/>
    </g>
  </g>

  <!-- Rising Pixel Wisps (Divine Light Motes) -->
  <rect class="w1" x="120" y="112" width="4" height="8" fill="#fff7e0" style="animation-duration:3.2s;animation-delay:0s;"/><rect class="w2" x="152" y="128" width="4" height="8" fill="#fff7e0" style="animation-duration:3.8s;animation-delay:0.6s;"/><rect class="w3" x="208" y="80" width="4" height="8" fill="#fff7e0" style="animation-duration:2.8s;animation-delay:1.2s;"/><rect class="w4" x="264" y="88" width="4" height="8" fill="#fff7e0" style="animation-duration:3.5s;animation-delay:1.8s;"/><rect class="w1" x="328" y="120" width="4" height="8" fill="#fff7e0" style="animation-duration:3.0s;animation-delay:0.9s;"/><rect class="w2" x="360" y="104" width="4" height="8" fill="#fff7e0" style="animation-duration:3.6s;animation-delay:1.5s;"/><rect class="w3" x="240" y="56" width="4" height="8" fill="#fff7e0" style="animation-duration:2.5s;animation-delay:2.2s;"/>

  <!-- Pixel Art Caption Inscription -->
  <g class="caption-pulse">
    <!-- Centered Pixel Diamond Accent -->
    <rect x="236" y="204" width="8" height="8" fill="#f5d698"/>
    <rect x="232" y="206" width="16" height="4" fill="#f4a742"/>
    <text x="240" y="224" font-family="'Press Start 2P', monospace" font-size="8" letter-spacing="3" fill="#c9a876" text-anchor="middle">⚡ WARRIOR OF SUNLIGHT · SUMMON SIGN ⚡</text>
  </g>
</svg>
